<?xml version="1.0" encoding="utf-8"?>
<!-- Generator: Adobe Illustrator 23.0.0, SVG Export Plug-In . SVG Version: 6.00 Build 0)  -->
<svg version="1.1" id="Capa_1" xmlns="http://www.w3.org/2000/svg" xmlns:xlink="http://www.w3.org/1999/xlink" x="0px" y="0px"
	 viewBox="0 0 512.1 512.1" style="enable-background:new 0 0 512.1 512.1;" xml:space="preserve">
<style type="text/css">
	.st0{fill:#0364AA;}
</style>
<g>
	<g>
		<path class="st0" d="M365,44.5C335,14.8,298.7,0,256,0s-79,14.8-109,44.5S102,110,102,152c0,25.3,12.8,67.7,38.5,127
			c25.7,59.3,51.3,113.3,77,162s38.5,72.3,38.5,71c4-7.3,9.5-17.3,16.5-30s19.3-36.5,37-71.5s33.2-67.2,46.5-96.5
			c13.3-29.3,25.7-59.7,37-91s17-55,17-71C410,110,395,74.2,365,44.5z M289,184c-9.3,9.3-20.5,14-33.5,14s-24.2-4.7-33.5-14
			s-14-20.5-14-33.5s4.7-24,14-33s20.5-13.5,33.5-13.5s24.2,4.5,33.5,13.5s14,20,14,33S298.4,174.7,289,184z"/>
	</g>
</g>
</svg>
