<?xml version="1.0" encoding="utf-8"?>
<!-- Generator: Adobe Illustrator 23.0.0, SVG Export Plug-In . SVG Version: 6.00 Build 0)  -->
<svg version="1.1" id="Capa_1" xmlns="http://www.w3.org/2000/svg" xmlns:xlink="http://www.w3.org/1999/xlink" x="0px" y="0px"
	 viewBox="0 0 512.1 512.1" style="enable-background:new 0 0 512.1 512.1;" xml:space="preserve">
<style type="text/css">
	.st0{fill:#DE092C;}
	.st1{fill:#FFFFFF;}
</style>
<g>
	<g>
		<path class="st0" d="M365,44.5C335,14.8,298.7,0,256,0s-79,14.8-109,44.5S102,110,102,152c0,25.3,12.8,67.7,38.5,127
			s51.3,113.3,77,162s38.5,72.3,38.5,71c4-7.3,9.5-17.3,16.5-30s19.3-36.5,37-71.5s33.2-67.2,46.5-96.5s25.7-59.7,37-91s17-55,17-71
			C410,110,395,74.2,365,44.5z M289,184c-9.3,9.3-20.5,14-33.5,14s-24.2-4.7-33.5-14s-14-20.5-14-33.5s4.7-24,14-33
			s20.5-13.5,33.5-13.5s24.2,4.5,33.5,13.5s14,20,14,33S298.4,174.7,289,184z"/>
	</g>
</g>
<path class="st1" d="M256,107.2c-7.6,1.9-2.6-3.1-2.6-3.1l28.3,28.4l-5.7-18.8l-60.5,62.5l87.4-21.9l-20.1-41.8l-65.4,10l-1.9,50.2
	l53.6,18.4l33.3-32.9l-26-46.8l-44.4,1.1L215.6,129l2.6,50.8l53.3,15.6l28.7-32.1l1.7-1.9l-10.3-41.3l-30.8-15.8l-27.8,5.2l-13.6,10
	l-6.9,11.1l-4.5,13l0.5,14l5.2,15.7L222,184l11.3,8.5L245,198l17.7-0.5l12.4-3.7l10.8-7l9.2-10.2l4.7-8.8l3.2-19.4l-3.5-15.9
	l-5.6-9.6l-8.1-8.3l-13.5-7.8l-16.8-2.9l-19.5,3.9"/>
</svg>
